<svg width="320" height="110" viewBox="0 0 320 110" fill="none" xmlns="http://www.w3.org/2000/svg">
<foreignObject x="-12" y="-12" width="344" height="134"><div xmlns="http://www.w3.org/1999/xhtml" style="backdrop-filter:blur(6px);clip-path:url(#bgblur_0_223_835_clip_path);height:100%;width:100%"></div></foreignObject><g filter="url(#filter0_iiiii_223_835)" data-figma-bg-blur-radius="12">
<path d="M0 38.4C0 24.9587 0 18.2381 2.61584 13.1042C4.9168 8.58834 8.58834 4.9168 13.1042 2.61584C18.2381 0 24.9587 0 38.4 0H281.6C295.041 0 301.762 0 306.896 2.61584C311.412 4.9168 315.083 8.58834 317.384 13.1042C320 18.2381 320 24.9587 320 38.4V71.6C320 85.0413 320 91.7619 317.384 96.8958C315.083 101.412 311.412 105.083 306.896 107.384C301.762 110 295.041 110 281.6 110H38.4C24.9587 110 18.2381 110 13.1042 107.384C8.58834 105.083 4.9168 101.412 2.61584 96.8958C0 91.7619 0 85.0413 0 71.6V38.4Z" fill="#1A1A1A" style="mix-blend-mode:plus-lighter"/>
</g>
<defs>
<filter id="filter0_iiiii_223_835" x="-12" y="-12" width="344" height="134" filterUnits="userSpaceOnUse" color-interpolation-filters="sRGB">
<feFlood flood-opacity="0" result="BackgroundImageFix"/>
<feBlend mode="normal" in="SourceGraphic" in2="BackgroundImageFix" result="shape"/>
<feColorMatrix in="SourceAlpha" type="matrix" values="0 0 0 0 0 0 0 0 0 0 0 0 0 0 0 0 0 0 127 0" result="hardAlpha"/>
<feOffset/>
<feGaussianBlur stdDeviation="11"/>
<feComposite in2="hardAlpha" operator="arithmetic" k2="-1" k3="1"/>
<feColorMatrix type="matrix" values="0 0 0 0 0.94902 0 0 0 0 0.94902 0 0 0 0 0.94902 0 0 0 0.5 0"/>
<feBlend mode="plus-darker" in2="shape" result="effect1_innerShadow_223_835"/>
<feColorMatrix in="SourceAlpha" type="matrix" values="0 0 0 0 0 0 0 0 0 0 0 0 0 0 0 0 0 0 127 0" result="hardAlpha"/>
<feMorphology radius="1" operator="erode" in="SourceAlpha" result="effect2_innerShadow_223_835"/>
<feOffset/>
<feComposite in2="hardAlpha" operator="arithmetic" k2="-1" k3="1"/>
<feColorMatrix type="matrix" values="0 0 0 0 0.6 0 0 0 0 0.6 0 0 0 0 0.6 0 0 0 1 0"/>
<feBlend mode="overlay" in2="effect1_innerShadow_223_835" result="effect2_innerShadow_223_835"/>
<feColorMatrix in="SourceAlpha" type="matrix" values="0 0 0 0 0 0 0 0 0 0 0 0 0 0 0 0 0 0 127 0" result="hardAlpha"/>
<feMorphology radius="2" operator="dilate" in="SourceAlpha" result="effect3_innerShadow_223_835"/>
<feOffset dx="-2" dy="-2"/>
<feGaussianBlur stdDeviation="0.5"/>
<feComposite in2="hardAlpha" operator="arithmetic" k2="-1" k3="1"/>
<feColorMatrix type="matrix" values="0 0 0 0 0.701961 0 0 0 0 0.701961 0 0 0 0 0.701961 0 0 0 1 0"/>
<feBlend mode="plus-lighter" in2="effect2_innerShadow_223_835" result="effect3_innerShadow_223_835"/>
<feColorMatrix in="SourceAlpha" type="matrix" values="0 0 0 0 0 0 0 0 0 0 0 0 0 0 0 0 0 0 127 0" result="hardAlpha"/>
<feMorphology radius="2" operator="dilate" in="SourceAlpha" result="effect4_innerShadow_223_835"/>
<feOffset dx="2" dy="2"/>
<feGaussianBlur stdDeviation="0.5"/>
<feComposite in2="hardAlpha" operator="arithmetic" k2="-1" k3="1"/>
<feColorMatrix type="matrix" values="0 0 0 0 0.701961 0 0 0 0 0.701961 0 0 0 0 0.701961 0 0 0 1 0"/>
<feBlend mode="plus-lighter" in2="effect3_innerShadow_223_835" result="effect4_innerShadow_223_835"/>
<feColorMatrix in="SourceAlpha" type="matrix" values="0 0 0 0 0 0 0 0 0 0 0 0 0 0 0 0 0 0 127 0" result="hardAlpha"/>
<feMorphology radius="3.5" operator="dilate" in="SourceAlpha" result="effect5_innerShadow_223_835"/>
<feOffset dx="3" dy="3"/>
<feGaussianBlur stdDeviation="0.25"/>
<feComposite in2="hardAlpha" operator="arithmetic" k2="-1" k3="1"/>
<feColorMatrix type="matrix" values="0 0 0 0 1 0 0 0 0 1 0 0 0 0 1 0 0 0 0.5 0"/>
<feBlend mode="normal" in2="effect4_innerShadow_223_835" result="effect5_innerShadow_223_835"/>
</filter>
<clipPath id="bgblur_0_223_835_clip_path" transform="translate(12 12)"><path d="M0 38.4C0 24.9587 0 18.2381 2.61584 13.1042C4.9168 8.58834 8.58834 4.9168 13.1042 2.61584C18.2381 0 24.9587 0 38.4 0H281.6C295.041 0 301.762 0 306.896 2.61584C311.412 4.9168 315.083 8.58834 317.384 13.1042C320 18.2381 320 24.9587 320 38.4V71.6C320 85.0413 320 91.7619 317.384 96.8958C315.083 101.412 311.412 105.083 306.896 107.384C301.762 110 295.041 110 281.6 110H38.4C24.9587 110 18.2381 110 13.1042 107.384C8.58834 105.083 4.9168 101.412 2.61584 96.8958C0 91.7619 0 85.0413 0 71.6V38.4Z"/>
</clipPath></defs>
</svg>
