<svg width="374" height="366" viewBox="0 0 374 366" fill="none" xmlns="http://www.w3.org/2000/svg">
<g opacity="0.82">
<path d="M374 0H0V366H374V0Z" fill="#0A0A0A"/>
<path fill-rule="evenodd" clip-rule="evenodd" d="M106.753 197.185C107.114 198.888 106.71 200.667 106.05 202.282C106.216 202.437 106.381 202.59 106.547 202.744C109.847 200.23 113.199 197.663 115.599 194.31C116.61 192.898 115.416 190.835 113.797 190.155C112.178 189.474 110.336 189.684 108.576 189.611C106.457 189.524 104.358 189.002 102.454 188.089C99.6885 186.765 97.1512 184.581 94.073 184.536C93.7334 184.531 93.3693 184.561 93.1021 184.767C92.4513 185.269 92.8487 186.29 93.3379 186.945C95.7649 190.195 99.4027 192.557 103.405 193.484C105.135 193.884 106.393 195.481 106.753 197.185Z" fill="#4ADE80"/>
<path fill-rule="evenodd" clip-rule="evenodd" d="M159.854 246.816L116.095 256.373C107.152 258.326 98.2832 252.815 96.287 244.062C95.3251 239.844 96.1215 235.424 98.5001 231.782L122.643 194.811C130.076 183.429 132.565 169.617 129.558 156.434L119.792 113.611C117.796 104.859 123.428 96.1804 132.372 94.2269C136.683 93.2856 141.199 94.0649 144.921 96.3922L182.7 120.019C194.33 127.293 208.445 129.728 221.916 126.786L265.674 117.229C274.618 115.276 283.486 120.787 285.482 129.54C286.444 133.758 285.648 138.178 283.27 141.82L259.126 178.791C251.694 190.173 249.205 203.985 252.211 217.168L261.978 259.991C263.974 268.743 258.341 277.422 249.398 279.375C245.087 280.316 240.57 279.537 236.849 277.21L199.069 253.583C187.439 246.309 173.325 243.874 159.854 246.816Z" fill="#4ADE80"/>
<path d="M313.76 230.145C313.76 230.145 117.656 230.246 40.0137 230.145C33.9196 217.144 41.5861 199.772 55.4358 195.2C51.1014 200.039 46.767 204.878 42.4326 209.717C50.0477 209.642 313.76 209.717 313.76 209.717V230.145Z" fill="#0A0A0A"/>
<path fill-rule="evenodd" clip-rule="evenodd" d="M250.512 230.173C153.142 230.21 82.9761 230.201 40.0137 230.145C33.9196 217.144 183.344 222.618 240.005 222.618C296.667 222.618 270.453 230.165 250.512 230.173Z" fill="#203126"/>
<path fill-rule="evenodd" clip-rule="evenodd" d="M209.961 81.1012C210.653 80.3292 212.019 80.2721 212.776 80.9836C210.331 76.2456 203.179 74.8255 201.643 69.7352C199.676 63.2194 196.774 56.974 193.05 51.24C191.5 56.8774 188.54 62.1385 184.5 66.4339C183.449 66.4383 182.398 66.4431 181.347 66.4475C178.959 66.4583 176.55 66.471 174.218 66.9731C170.022 67.8769 166.262 70.3257 162.011 70.9347C162.326 70.5487 162.641 70.1627 162.956 69.7762C162.869 69.378 162.279 69.1955 161.973 69.4727C161.435 67.3767 159.7 65.7312 157.733 64.7498C155.765 63.7689 152.864 61.9428 147.057 62.423C154.102 70.1417 151.92 102.275 153.654 108.364C154.245 108.519 154.697 107.886 155.082 107.421C155.466 106.955 156.364 106.669 156.572 107.232C158.015 111.147 158.22 117.172 162.644 119.504C163.498 119.954 164.005 119.113 163.94 118.704C163.855 118.18 164.497 117.777 165.032 117.857C165.568 117.936 165.996 118.316 166.413 118.653C173.45 124.339 184.973 121.408 192.018 127.084C193.41 128.206 194.637 129.667 196.374 130.14C197.411 130.421 198.516 130.311 199.575 130.125C205.882 129.018 211.497 125.356 215.877 120.78C220.257 116.205 223.527 110.733 226.572 105.216C223.767 103.661 220.818 101.967 219.293 99.1865C218.092 96.9959 217.354 93.8561 214.829 93.5882C215.629 96.1345 216.431 98.6804 217.232 101.226C217.525 102.159 217.822 103.131 217.667 104.095C217.512 105.058 216.759 106.005 215.764 106.054C214.413 106.12 213.461 104.624 212.119 104.453C211.865 109.378 209.933 114.206 206.702 117.989C205.58 119.302 203.425 120.494 202.287 119.195C204.014 116.465 205.741 113.734 207.468 111.003C208.544 109.302 209.648 107.522 209.846 105.53C210.043 103.538 209.034 101.279 207.077 100.698C206.99 100.171 207.558 99.7189 208.103 99.7028C208.648 99.6872 209.149 99.9697 209.618 100.243C211.359 101.26 213.102 102.277 214.844 103.294C214.288 99.2509 213.152 95.2849 211.478 91.5493C213.099 91.399 214.757 91.641 216.263 92.2491C215.103 88.9668 212.978 86.0178 210.208 83.8477C209.388 83.206 209.268 81.8732 209.961 81.1012Z" fill="#0A0A0A"/>
<path fill-rule="evenodd" clip-rule="evenodd" d="M175.169 72.3894C176.604 73.3191 177.737 74.6899 178.365 76.2583C178.56 76.7458 179.115 76.981 179.489 77.3558C179.863 77.7301 179.925 78.5304 179.4 78.6353C179.171 78.6807 178.946 78.5573 178.745 78.4397C175.527 76.5594 171.614 75.0412 168.103 76.3256C168.68 76.614 168.972 77.3543 168.742 77.9473C169.458 77.9726 170.126 78.2879 170.77 78.5973C171.337 78.8696 171.904 79.1414 172.471 79.4137C172.411 79.5777 172.352 79.7416 172.292 79.9051C169.729 78.628 166.599 78.4953 163.932 79.5508C164.818 79.6826 165.721 79.7065 166.614 79.6221C167.915 80.2638 169.216 80.9055 170.517 81.5472C170.806 81.6897 171.111 81.8469 171.274 82.1211C171.437 82.3954 171.375 82.8204 171.072 82.9336C168.721 80.9045 165.396 80.0076 162.315 80.5712C161.955 80.6366 161.71 80.1462 161.862 79.8207C162.015 79.4952 162.381 79.3283 162.721 79.1975C164.429 78.5392 166.23 78.1137 168.057 77.9365C167.143 77.1074 166.084 76.4315 164.941 75.947C164.753 75.3169 165.682 74.7133 166.203 75.1271C170.159 74.3683 174.397 75.1213 177.827 77.1923C177.856 76.534 177.357 75.9801 176.89 75.5048C175.43 74.0198 173.97 72.5348 172.51 71.0499C175.066 71.3666 177.572 72.0713 179.91 73.1297C180.44 73.3693 180.962 73.628 181.441 73.9525C183.245 75.1749 184.319 77.3612 184.167 79.5035C183.073 77.2431 181.344 75.2813 179.219 73.8925C178.004 73.099 176.627 72.4807 175.169 72.3894Z" fill="#203126"/>
<path fill-rule="evenodd" clip-rule="evenodd" d="M82.2491 179.228C78.5475 182.479 78.8711 188.232 80.207 192.921C81.926 198.953 84.8327 204.659 88.7203 209.632L42.4326 210.087L55.4358 195.571C41.5861 200.143 33.9196 217.515 40.0137 230.516C117.656 230.617 195.298 230.461 272.939 230.049C258.778 239.415 245.049 250.778 238.469 266.215C231.888 281.652 234.613 301.948 248.602 311.558C253.813 315.138 260.07 316.972 266.325 318.131C272.775 319.327 280.585 319.377 284.567 314.269C286.891 311.286 285.78 306.605 284.681 301.975C283.914 298.746 283.153 295.542 283.569 292.957C284.979 284.19 291.009 279.745 297.891 274.672C299.337 273.606 300.82 272.513 302.305 271.346C314.991 261.383 329.533 248.785 333.236 233.285C336.617 219.127 332.895 205.082 323.224 194.044C319.742 190.07 315.461 186.453 311.159 182.818C305.377 177.933 299.557 173.015 295.582 167.153C293.155 163.573 292.304 159.746 291.411 155.731C291.091 154.289 290.765 152.824 290.359 151.337C285.145 132.241 266.551 122.423 247.406 112.313C244.981 111.032 242.547 109.747 240.131 108.438C229.052 102.435 217.869 94.7506 214.311 82.7223C216.273 82.797 217.001 79.9115 215.87 78.3401C215.03 77.1718 213.702 76.5145 212.377 75.8586C211.92 75.6327 211.464 75.4067 211.028 75.1603C206.983 72.8716 204.663 68.2024 202.288 63.421C198.72 56.2371 195.026 48.8 185.162 48.8C184.79 51.2371 185.175 53.4087 185.536 55.4431C186.093 58.5868 186.592 61.4036 184.151 64.3696C177.161 63.6113 169.935 65.107 163.857 68.5703C160.344 62.0429 151.433 59.2544 144.21 61.3675C145.124 62.4943 145.667 63.0594 146.116 63.5278C147.066 64.5175 147.602 65.0758 150.358 69.5859C154.419 76.2305 151.846 100.658 151.204 104.52C150.561 108.382 153.602 111.127 156.383 109.22C155.028 114.944 159.909 120.407 165.911 120.572C167.961 120.929 169.236 121.9 170.439 122.817C171.188 123.387 171.91 123.937 172.775 124.306C153.716 137.646 132.619 148.19 110.403 155.479L110.012 155.607C105.855 156.969 101.51 158.392 98.5665 161.553C95.5311 164.813 94.818 170.601 98.3505 173.341C96.1938 175.254 93.2422 175.775 90.2896 176.295C87.3489 176.814 84.4073 177.332 82.2491 179.228ZM279.125 205.044C275.685 208.225 268.951 208.392 264.22 208.373L202.855 208.127C201.082 205.821 202.178 202.278 204.468 200.462C206.759 198.645 209.842 198.156 212.781 197.928C222.266 197.193 231.913 198.527 240.819 201.805C243.32 202.24 245.219 199.152 244.614 196.738C244.01 194.324 241.909 192.597 239.955 191.008C233.651 185.883 227.47 180.112 224.511 172.632C221.442 164.875 222.332 155.725 226.841 148.674C219.271 154.829 217.68 166.142 221.08 175.181C224.48 184.22 231.946 191.25 240.036 196.736C235.618 197.622 231.031 196.635 226.49 195.657C220.989 194.473 215.555 193.303 210.572 195.5L209.545 168.072L206.881 192.113C206.683 193.901 206.108 196.113 204.303 196.445C199.402 197.347 196.497 203.628 199.038 207.827C196.848 209.273 193.507 208.626 192.045 206.473C190.583 204.32 191.268 201.055 193.479 199.639C198.841 196.207 199.266 188.812 199.12 182.543L198.113 139.259C198.088 138.214 198.33 136.841 199.388 136.697C214.871 134.591 228.637 123.207 233.34 108.618C247.061 114.633 260.785 121.569 271.858 131.121C297.196 152.98 290.245 171.155 288.428 175.91C288.109 176.743 287.948 177.164 288.146 177.121C289.409 176.844 290.009 175.452 290.359 174.233C291.176 171.383 291.708 168.455 291.945 165.505C296.127 173.107 302.785 178.884 309.456 184.671C315.554 189.962 321.663 195.261 325.902 201.974C332.44 212.326 333.808 225.65 329.507 237.068C324.426 250.556 312.747 259.992 301.228 269.298C298.46 271.534 295.701 273.763 293.045 276.039C287.487 280.803 281.894 286.704 281.715 293.933C281.667 295.87 282.02 297.779 282.374 299.691C282.624 301.042 282.875 302.395 282.984 303.76C283.248 307.057 282.417 310.807 279.564 312.58C278.361 313.327 276.931 313.635 275.52 313.834C260.899 315.9 242.99 306.219 238.819 292.35C234.726 278.741 241.91 261.952 251.349 251.185C257.213 244.497 264.8 239.717 272.413 234.922C277.054 231.998 281.704 229.068 285.979 225.696C289.985 222.536 293.942 219.131 296.477 214.749C299.011 210.367 299.922 204.797 297.645 200.281C295.779 196.581 292.1 194.011 288.494 191.491C283.959 188.323 279.537 185.234 278.973 180.074C279.042 182.392 280.042 184.989 281.033 187.563C281.897 189.808 282.755 192.035 282.983 194.044C283.473 198.359 282.349 202.063 279.125 205.044ZM286.586 196.196C292.746 196.262 296.364 203.894 294.631 209.678C292.898 215.464 287.809 219.581 282.983 223.328C280.562 225.208 277.888 227.179 274.798 227.202L41.7631 228.908L40.7421 211.217L85.6859 211.175C91.4994 211.17 98.0907 211.495 101.878 215.812C103.254 217.382 105.706 215.672 107.386 214.416C111.366 211.442 116.77 211.297 121.778 211.277L286.206 210.624C287.969 210.617 290.342 210.037 290.284 208.313L279.227 207.906C283.198 205.231 285.938 200.871 286.586 196.196ZM115.579 209.256C118.046 203.426 119.917 197.355 121.157 191.163C121.505 189.424 121.804 187.643 121.567 185.887C120.857 180.614 115.742 177.144 111.041 174.474C113.047 174.435 114.759 173.047 116.046 171.541C116.405 171.122 116.747 170.686 117.089 170.25C117.977 169.119 118.864 167.989 120.033 167.153C122.432 165.437 122.816 165.407 127.771 165.009L127.788 165.007C128.294 164.967 128.846 164.923 129.454 164.872C133.812 164.511 144.35 160.625 152.045 157.788C155.97 156.341 159.156 155.166 160.403 154.872C177.469 150.841 189.299 156.118 191.964 158.962C193.417 160.514 193.774 162.739 194.066 164.825C195.381 174.21 196.695 183.743 195.311 193.118C195.052 194.868 194.575 196.797 193.058 197.759C191.537 198.722 190.106 199.82 188.785 201.035C186.668 202.981 184.765 206.142 186.41 208.485L115.579 209.256ZM212.724 80.2877C211.967 79.5762 210.601 79.6333 209.909 80.4053C209.217 81.1773 209.336 82.5096 210.156 83.1518C212.926 85.3219 215.052 88.2709 216.211 91.5527C214.705 90.9452 213.047 90.7026 211.426 90.8529C213.099 94.589 214.236 98.5545 214.792 102.598L209.565 99.5466C209.097 99.2734 208.595 98.9913 208.051 99.0069C207.506 99.0225 206.938 99.4749 207.025 100.001C208.982 100.582 209.991 102.842 209.794 104.834C209.597 106.826 208.493 108.606 207.416 110.308L202.235 118.499C203.373 119.798 205.528 118.606 206.65 117.293C209.881 113.509 211.813 108.682 212.067 103.757C212.691 103.837 213.23 104.202 213.763 104.563C214.379 104.981 214.988 105.393 215.712 105.358C216.707 105.309 217.46 104.362 217.615 103.398C217.77 102.435 217.473 101.463 217.18 100.53L214.777 92.8923C216.735 93.0997 217.62 95.036 218.478 96.9163C218.726 97.4599 218.972 97.9992 219.241 98.4906C220.766 101.271 223.715 102.966 226.52 104.52C223.475 110.037 220.205 115.509 215.825 120.085C211.445 124.661 205.83 128.323 199.523 129.428C198.464 129.614 197.359 129.726 196.323 129.443C195.024 129.091 194.01 128.184 192.999 127.281C192.658 126.976 192.317 126.671 191.966 126.388C188.446 123.552 183.807 122.865 179.169 122.178C174.525 121.49 169.882 120.801 166.361 117.957C166.328 117.93 166.294 117.903 166.261 117.875C165.875 117.561 165.473 117.234 164.98 117.16C164.445 117.081 163.803 117.485 163.887 118.008C163.954 118.418 163.446 119.258 162.592 118.808C159.3 117.072 158.344 113.292 157.476 109.859C157.177 108.678 156.889 107.538 156.52 106.536C156.312 105.973 155.414 106.259 155.03 106.725L155.007 106.753C154.984 106.781 154.96 106.81 154.936 106.839C154.572 107.286 154.146 107.81 153.602 107.668C152.953 105.332 153.179 102.691 153.398 100.137C153.487 99.0967 153.575 98.0709 153.602 97.0857C153.604 96.9964 153.632 96.727 153.677 96.3048C154.179 91.4961 156.757 66.8419 147.057 62.423C149.363 61.9784 153.085 62.3898 156.383 64.3696C159.72 66.3724 162.118 70.0446 161.959 70.2388C164.264 69.9084 166.425 69.0374 168.588 68.1653C170.415 67.4284 172.245 66.6911 174.166 66.2772C176.498 65.7746 178.907 65.7619 181.295 65.7517L184.448 65.7375C187.845 62.1258 187.714 58.1696 187.561 53.5814C187.532 52.7133 187.503 51.8212 187.496 50.9057C193.383 51.6626 199.624 62.523 201.591 69.0393C202.412 71.7609 204.839 73.4333 207.293 75.1247C209.43 76.5965 211.586 78.0829 212.724 80.2877ZM112.376 157.118C113.05 156.951 113.72 156.784 114.381 156.613C124.495 153.994 133.934 149.386 143.292 144.808C154.441 139.354 165.782 133.768 174.726 125.273C175.418 124.616 176.514 124.662 177.469 124.782C181.003 125.228 184.478 126.11 187.787 127.402C189.521 128.079 191.471 129.242 191.483 131.069C191.487 131.712 191.235 132.327 190.986 132.922L189.321 136.918C188.61 138.622 187.887 140.39 187.948 142.231C188.01 144.07 189.077 146.013 190.887 146.518C192.695 147.024 194.93 145.377 194.463 143.594C193.662 140.54 193.114 137.423 192.826 134.283C196.351 141.114 195.135 149.264 193.836 156.809C189.171 154.404 184.288 152.404 179.263 150.841C177.537 150.304 175.602 149.832 173.972 150.603C169.98 152.492 162.466 152.995 161.727 152.487C160.987 151.98 159.974 152.225 159.122 152.518C157.749 152.99 155.133 153.988 152.007 155.181L152.006 155.182C144.335 158.108 133.599 162.203 130.643 162.57C129.865 162.667 129.082 162.738 128.3 162.809C126.608 162.964 124.916 163.118 123.272 163.525C120.867 164.121 118.497 165.354 117.224 167.438C116.273 166.926 115.679 166.021 115.082 165.111C114.794 164.672 114.505 164.232 114.175 163.833C113.161 162.611 111.032 161.856 110.059 163.111C109.206 160.256 104.887 159.154 102.718 161.238C102.383 161.56 102.103 161.931 101.823 162.302C101.533 162.687 101.242 163.073 100.889 163.404C100.197 164.052 99.0881 164.451 98.2847 163.94C101.568 159.803 107.097 158.43 112.376 157.118ZM101.672 208.969C99.1938 209.841 96.4601 208.991 94.0022 208.067C91.6784 207.194 89.2534 206.152 87.8416 204.145C86.1432 201.731 86.3262 198.545 86.5765 195.624L87.6247 183.386C86.0699 184.667 84.9279 186.419 84.3988 188.339C83.1422 185.626 85.0112 182.004 87.9877 181.382C86.7301 180.362 84.6606 181.031 83.773 182.372C82.8854 183.713 82.9053 185.44 83.1651 187.018C83.2349 187.443 83.3202 187.868 83.4055 188.293C83.6364 189.443 83.8668 190.594 83.7959 191.759C81.9274 188.902 81.5714 185.151 82.8699 182.006C83.4578 180.581 84.5006 179.188 86.0245 178.821C87.5489 178.454 89.4354 179.673 89.183 181.189C88.6041 184.664 90.2597 188.23 92.7989 190.725C95.3376 193.219 98.6647 194.79 102.023 196.052C103.259 196.516 104.796 197.58 104.193 198.734C103.564 199.938 103.129 201.302 103.346 202.639C103.562 203.975 104.562 205.252 105.925 205.483C107.604 205.767 109.099 204.493 110.306 203.316L117.439 196.362C116.489 198.946 115.374 201.473 114.103 203.922C113.232 205.6 112.236 207.298 110.663 208.379C109.088 209.46 106.784 209.741 105.295 208.551C104.466 207.887 103.334 208.328 102.281 208.739L102.28 208.74C102.073 208.82 101.869 208.9 101.672 208.969ZM100.966 184.632C100.3 184.2 99.6341 183.768 98.944 183.387C96.8062 182.207 93.9673 181.573 92.005 183.015C91.3757 181.034 92.6194 178.906 94.2415 177.569C97.1109 175.205 101.318 174.512 104.82 175.826C108.141 177.071 111.511 178.427 114.149 180.762C116.787 183.096 118.59 186.626 117.912 190.042C117.171 190.219 116.551 189.636 115.973 189.091C115.863 188.987 115.754 188.885 115.646 188.789C114.005 187.337 111.755 187.298 109.462 187.257C108.068 187.233 106.657 187.209 105.359 186.866C103.754 186.442 102.361 185.538 100.966 184.632ZM106.05 202.282C106.71 200.667 107.114 198.888 106.753 197.185C106.393 195.481 105.135 193.884 103.405 193.484C99.4027 192.557 95.7649 190.195 93.3379 186.945C92.8487 186.29 92.4513 185.269 93.1021 184.767C93.3693 184.561 93.7334 184.531 94.073 184.536C96.2646 184.568 98.1825 185.685 100.103 186.803C100.88 187.256 101.658 187.708 102.454 188.089C104.359 189.001 106.457 189.524 108.576 189.612C109.001 189.629 109.43 189.63 109.86 189.632C111.212 189.635 112.569 189.639 113.797 190.156C115.416 190.836 116.611 192.898 115.6 194.311C113.2 197.663 109.848 200.23 106.547 202.744L106.05 202.282ZM227.537 106.447C227.905 105.796 228.452 105.048 229.207 105.132C230.186 105.242 230.383 106.548 230.248 107.503C229.295 114.276 225.011 120.299 219.56 124.576C214.11 128.854 207.552 131.562 200.918 133.709C200.462 133.856 200.015 134.134 199.576 134.407C198.737 134.93 197.928 135.434 197.141 134.972C196.234 134.44 196.465 132.98 197.29 132.332C198.039 131.745 199.037 131.619 199.998 131.497C200.096 131.485 200.194 131.473 200.291 131.46C206.705 130.615 212.433 126.891 216.815 122.23C221.197 117.569 224.403 111.989 227.537 106.447ZM108.611 163.502C109.188 164.175 109.825 164.918 110.702 164.899C111.44 164.883 111.899 165.47 112.375 166.077C112.713 166.508 113.059 166.949 113.518 167.194C114.617 167.78 114.711 169.412 113.99 170.413C113.269 171.413 112.017 171.9 110.807 172.209C108.339 172.84 105.733 172.949 103.219 172.527C101.579 172.251 99.8794 171.687 98.8462 170.412C97.8125 169.135 97.783 166.993 99.1514 166.067C99.6092 165.757 100.16 165.613 100.708 165.469C101.361 165.298 102.01 165.128 102.491 164.68C102.848 164.348 103.061 163.905 103.275 163.462C103.499 162.999 103.722 162.536 104.109 162.202C104.735 161.661 105.684 161.587 106.473 161.857C107.261 162.128 107.909 162.693 108.451 163.316L108.529 163.408L108.611 163.502ZM103.989 213.31C103.735 213.408 103.449 213.424 103.186 213.355C102.932 213.288 102.699 213.141 102.532 212.942C101.849 212.133 102.801 210.669 103.839 210.932C104.878 211.194 104.987 212.925 103.989 213.31ZM188.43 208.231C188.177 208.527 187.562 208.496 187.496 208.116C187.227 206.551 187.099 204.627 188.421 203.709L188.645 207.123C188.671 207.508 188.683 207.935 188.43 208.231ZM175.169 69.9494C176.604 70.8791 177.737 72.2499 178.365 73.8183C178.492 74.1379 178.775 74.3492 179.06 74.562C179.209 74.6743 179.359 74.7865 179.489 74.9158C179.863 75.2901 179.925 76.0904 179.4 76.1953C179.171 76.2407 178.946 76.1173 178.745 75.9997C175.527 74.1194 171.614 72.6012 168.103 73.8856C168.68 74.1741 168.972 74.9143 168.742 75.5073C169.458 75.5326 170.126 75.8479 170.77 76.1573L172.471 76.9737L172.292 77.4651C169.729 76.188 166.599 76.0553 163.932 77.1108C164.818 77.2426 165.721 77.2665 166.614 77.1821L170.517 79.1072C170.806 79.2497 171.111 79.4069 171.274 79.6811C171.437 79.9554 171.375 80.3804 171.072 80.4937C168.721 78.4645 165.396 77.5676 162.315 78.1312C161.955 78.1966 161.71 77.7062 161.862 77.3807C162.015 77.0552 162.381 76.8883 162.721 76.7575C164.429 76.0992 166.23 75.6737 168.057 75.4965C167.143 74.6674 166.084 73.992 164.941 73.507C164.753 72.8769 165.682 72.2733 166.203 72.6871C170.159 71.9283 174.397 72.6813 177.827 74.7523C177.856 74.094 177.357 73.5401 176.89 73.0648L172.51 68.6099C175.066 68.9266 177.572 69.6313 179.91 70.6897C180.44 70.9293 180.962 71.188 181.441 71.5125C183.245 72.7349 184.319 74.9212 184.167 77.0635C183.073 74.8031 181.344 72.8413 179.219 71.4525C178.004 70.659 176.627 70.0407 175.169 69.9494ZM184.175 90.7519C183.927 88.8619 183.915 86.8455 184.834 85.1648C185.109 84.6621 185.491 84.1795 186.032 83.9687C186.859 83.6466 187.813 84.058 188.466 84.6514C190.086 86.1232 190.431 88.5081 190.292 90.6675C190.231 91.6054 190.091 92.5653 189.62 93.3851C189.151 94.205 188.291 94.8648 187.33 94.8784C186.366 94.8926 185.486 94.2543 184.984 93.4481C184.482 92.6419 184.298 91.6879 184.175 90.7519ZM161.111 97.784C159.289 95.0551 159.412 91.217 161.405 88.6047C161.643 88.2929 161.914 87.9903 162.268 87.8117C162.957 87.4642 163.837 87.6736 164.435 88.1577C165.032 88.6418 165.391 89.3509 165.651 90.0658C166.421 92.1837 166.452 94.551 165.74 96.6874C165.307 97.9836 164.236 99.3856 162.864 99.1514C162.106 99.022 161.532 98.414 161.111 97.784ZM178.613 111.8C178.832 111.741 179.05 111.682 179.211 111.531C179.552 111.211 179.432 110.593 179.045 110.328C178.657 110.064 178.113 110.11 177.699 110.334C177.281 110.561 176.948 111.01 177.019 111.473C177.09 111.936 177.695 112.282 178.084 112.01C178.239 111.902 178.426 111.851 178.613 111.8ZM183.533 104.276C186.558 103.62 188.249 103.703 190.844 104.351L191.391 104.491C193.98 105.152 195.598 105.155 198.885 104.112C199.278 103.988 199.7 104.198 199.827 104.583C199.954 104.968 193.957 106.635 191.215 105.957L190.71 105.829C188.185 105.18 186.717 105.085 183.856 105.706C183.453 105.793 183.054 105.544 182.964 105.149C182.875 104.755 183.129 104.364 183.533 104.276ZM207.293 97.2067C207.11 96.8441 206.662 96.6948 206.291 96.8734C200.968 99.4373 198.019 99.7716 193.164 99.165L191.939 99.0167C191.8 99.0011 191.677 98.9884 191.548 98.9762L191.111 98.9381C188.22 98.7156 185.929 99.1958 182.989 100.914C182.634 101.121 182.519 101.571 182.73 101.918C182.942 102.265 183.401 102.378 183.756 102.171C186.491 100.572 188.511 100.176 191.211 100.416C191.39 100.431 191.539 100.446 191.712 100.465L193.507 100.681C198.33 101.229 207.475 97.5692 207.293 97.2067ZM170.362 104.079C170.774 104.05 171.132 104.353 171.161 104.757C171.191 105.16 170.881 105.51 170.469 105.539C168.763 105.658 167.589 106.225 165.826 107.616L165.188 108.131L164.979 108.302C164.867 108.395 164.771 108.473 164.735 108.502C163.181 109.77 162.146 110.461 160.773 111.012C160.391 111.165 157.751 111.691 159.797 110.613C161.843 109.534 164.509 106.779 164.509 106.779L164.899 106.466C166.877 104.908 168.293 104.223 170.362 104.079ZM171.484 107.581C171.322 107.209 170.883 107.036 170.503 107.195C168.626 107.979 167.568 108.982 165.792 111.257L165.243 111.955C164.884 112.405 164.582 112.859 164.29 113.3C163.645 114.272 163.044 115.178 161.958 115.832C160.38 116.781 162.635 116.284 162.987 116.072C164.388 115.229 165.297 114.298 166.715 112.485L167.127 111.959C168.666 110.006 169.565 109.178 171.091 108.541C171.471 108.382 171.647 107.952 171.484 107.581Z" fill="white"/>
<path fill-rule="evenodd" clip-rule="evenodd" d="M174.105 105.255C173.493 104.716 172.604 104.55 172.007 103.995C171.44 103.469 171.223 102.612 171.474 101.888C171.724 101.164 172.429 100.612 173.206 100.531C175.433 100.3 177.661 100.069 179.889 99.838C180.418 99.7833 181.002 99.7418 181.43 100.05C182.085 100.521 181.981 101.55 181.509 102.196C181.036 102.842 180.307 103.258 179.738 103.824C179.004 104.554 178.545 105.543 178.466 106.564C178.408 107.322 178.492 108.226 177.878 108.692C177.107 109.276 175.967 108.585 175.496 107.75C175.024 106.914 174.83 105.894 174.105 105.255Z" fill="#FFB61D"/>
<path fill-rule="evenodd" clip-rule="evenodd" d="M264.436 208.579C269.168 208.598 275.902 208.431 279.341 205.251C282.565 202.269 283.689 198.565 283.199 194.25C282.71 189.936 279.318 184.619 279.189 180.28C280.202 189.543 293.648 192.133 297.861 200.487C300.138 205.002 299.228 210.573 296.693 214.955C294.158 219.336 290.202 222.742 286.195 225.902C274.909 234.804 261.004 240.625 251.565 251.392C242.127 262.158 234.943 278.948 239.035 292.556C243.206 306.424 261.116 316.106 275.737 314.04C277.147 313.841 278.578 313.533 279.78 312.786C282.633 311.013 283.464 307.263 283.2 303.966C282.937 300.67 281.849 297.444 281.931 294.139C282.111 286.91 287.703 281.008 293.261 276.245C306.969 264.498 323.421 254.004 329.723 237.274C334.025 225.856 332.656 212.532 326.119 202.18C317.241 188.123 300.165 180.262 292.161 165.711C291.924 168.661 291.392 171.589 290.575 174.439C290.225 175.658 289.626 177.05 288.362 177.327C287.036 177.617 301.851 157.015 272.074 131.327C261.001 121.775 247.278 114.839 233.556 108.824C228.853 123.413 215.087 134.797 199.604 136.903C198.546 137.047 198.305 138.42 198.329 139.465C198.665 153.893 199 168.321 199.336 182.749C199.482 189.018 199.057 196.413 193.695 199.846C191.484 201.261 190.799 204.526 192.261 206.679C193.723 208.832 197.064 209.479 199.254 208.033C196.713 203.834 199.618 197.554 204.519 196.651C206.324 196.319 206.899 194.107 207.097 192.32C207.985 184.306 208.873 176.292 209.761 168.278C210.103 177.421 210.446 186.563 210.788 195.706C219.883 191.696 230.48 198.902 240.253 196.942C232.162 191.457 224.696 184.425 221.296 175.387C217.896 166.348 219.487 155.035 227.057 148.88C222.548 155.931 221.658 165.081 224.727 172.838C227.686 180.317 233.868 186.089 240.172 191.214C242.126 192.802 244.227 194.529 244.831 196.944C245.435 199.358 243.536 202.446 241.035 202.011C232.129 198.734 222.482 197.4 212.997 198.135C210.058 198.362 206.975 198.851 204.685 200.668C202.394 202.485 201.298 206.028 203.071 208.333C223.526 208.415 243.981 208.497 264.436 208.579Z" fill="#0A0A0A"/>
<path fill-rule="evenodd" clip-rule="evenodd" d="M275.52 313.834C276.931 313.635 278.361 313.327 279.564 312.58C282.417 310.807 283.248 307.057 282.984 303.76C282.721 300.464 281.633 297.238 281.715 293.933C281.894 286.704 287.487 280.803 293.045 276.039C306.753 264.293 323.204 253.798 329.507 237.068C332.03 230.37 300.345 250.853 282.984 274.969C270.752 291.962 269.476 314.688 275.52 313.834Z" fill="#203126"/>
<path fill-rule="evenodd" clip-rule="evenodd" d="M287.177 147.253C285.029 142.191 279.041 137.318 271.858 131.121C260.785 121.569 247.061 114.633 233.34 108.618C246.795 118.21 263.198 126.217 274.87 138.256C280.559 144.123 284.408 155.948 287.624 159.748C290.086 162.657 293.302 161.689 287.177 147.253Z" fill="#203126"/>
<path fill-rule="evenodd" clip-rule="evenodd" d="M192.363 145.268C192.851 144.225 193.194 139.414 190.624 139.414C189.021 141.195 189.185 144.613 192.363 145.268Z" fill="#FFB61D"/>
<path fill-rule="evenodd" clip-rule="evenodd" d="M114.381 156.613C108.545 158.124 101.988 159.275 98.2847 163.94C99.0881 164.451 100.197 164.052 100.889 163.404C101.581 162.756 102.034 161.894 102.718 161.238C104.887 159.154 109.206 160.256 110.059 163.111C111.032 161.856 113.161 162.611 114.175 163.833C115.19 165.056 115.814 166.679 117.224 167.438C118.497 165.354 120.867 164.121 123.272 163.525C125.677 162.93 128.182 162.875 130.643 162.57C134.804 162.054 138.87 160.811 142.59 158.916C142.363 159.37 157.777 152.829 171.881 151.881C182.18 151.189 191.867 155.794 193.836 156.809C195.135 149.264 196.351 141.114 192.826 134.283C193.114 137.423 193.662 140.54 194.463 143.594C194.93 145.377 192.695 147.024 190.887 146.518C189.077 146.013 188.01 144.07 187.948 142.231C187.887 140.39 188.61 138.622 189.321 136.918C189.876 135.586 190.431 134.254 190.986 132.922C191.235 132.327 191.487 131.712 191.483 131.069C191.471 129.242 189.521 128.079 187.787 127.402C184.478 126.11 181.003 125.228 177.469 124.782C176.514 124.662 175.418 124.616 174.726 125.273C165.782 133.768 154.441 139.354 143.292 144.808C133.934 149.386 124.495 153.994 114.381 156.613Z" fill="#0A0A0A"/>
<path fill-rule="evenodd" clip-rule="evenodd" d="M117.224 167.438C118.497 165.354 120.867 164.121 123.272 163.525C125.677 162.93 128.182 162.875 130.643 162.57C131.604 162.451 135.547 161.842 140.665 160.084C148.066 157.543 158.224 153.486 167.904 152.454C180.538 151.107 191.804 155.761 193.836 156.809C195.135 149.264 190.741 150.169 188.381 149.931C136.217 144.658 115.814 166.679 117.224 167.438Z" fill="#203126"/>
</g>
</svg>
